<svg width="100" height="100" viewBox="0 0 100 100" fill="none" xmlns="http://www.w3.org/2000/svg">
<path d="M26.5625 19.15C25.986 18.5748 25.205 18.2518 24.3906 18.2518C23.5763 18.2518 22.7952 18.5748 22.2188 19.15L17.1281 24.2437C16.5539 24.8201 16.2315 25.6005 16.2315 26.4141C16.2315 27.2276 16.5539 28.008 17.1281 28.5844L19.9313 31.3875C22.2978 27.5712 25.3679 24.2392 28.9781 21.5687L26.5594 19.15H26.5625ZM78.4313 71.0219C75.7573 74.6289 72.4259 77.6984 68.6125 80.0687L71.4188 82.8719C71.995 83.4451 72.7747 83.7669 73.5875 83.7669C74.4003 83.7669 75.18 83.4451 75.7563 82.8719L80.85 77.7781C81.4233 77.2019 81.7451 76.4222 81.7451 75.6094C81.7451 74.7966 81.4233 74.0168 80.85 73.4406L78.4313 71.0219ZM47.6875 38.375C47.7621 38.6216 47.7873 38.8806 47.7616 39.1369C47.736 39.3933 47.66 39.6421 47.5381 39.8691C47.4162 40.0961 47.2507 40.2968 47.0511 40.4598C46.8516 40.6227 46.6218 40.7447 46.375 40.8187L39.2094 42.9625C38.7104 43.1117 38.1727 43.0566 37.7144 42.8092C37.2561 42.5619 36.9148 42.1427 36.7656 41.6437C36.6165 41.1448 36.6716 40.607 36.9189 40.1488C37.1662 39.6905 37.5854 39.3492 38.0844 39.2L45.2469 37.0562C46.2844 36.7437 47.375 37.3375 47.6875 38.375ZM60.5219 45.1625C60.7763 45.2035 61.0202 45.2943 61.2396 45.4296C61.4589 45.5648 61.6495 45.742 61.8004 45.9509C61.9513 46.1599 62.0595 46.3965 62.119 46.6473C62.1784 46.898 62.1879 47.1581 62.1469 47.4125L60.9531 54.7969C60.8702 55.3107 60.5866 55.7706 60.1647 56.0754C59.7427 56.3801 59.217 56.5048 58.7031 56.4219C58.1893 56.339 57.7294 56.0554 57.4246 55.6334C57.1199 55.2115 56.9952 54.6857 57.0781 54.1719L58.2719 46.7875C58.3129 46.5331 58.4037 46.2892 58.5389 46.0698C58.6742 45.8505 58.8514 45.6599 59.0603 45.509C59.2693 45.3581 59.5059 45.2498 59.7566 45.1904C60.0074 45.1309 60.2674 45.1215 60.5219 45.1625ZM46.9625 63.9687C47.1457 64.1501 47.3629 64.2937 47.6016 64.3911C47.8403 64.4886 48.0959 64.5381 48.3537 64.5368C48.6115 64.5355 48.8666 64.4834 49.1043 64.3835C49.342 64.2836 49.5577 64.1379 49.7391 63.9547C49.9205 63.7715 50.064 63.5543 50.1614 63.3156C50.2589 63.0769 50.3084 62.8213 50.3071 62.5635C50.3058 62.3057 50.2537 62.0506 50.1538 61.8129C50.054 61.5752 49.9082 61.3595 49.725 61.1781L44.4125 55.9156C44.0409 55.5591 43.544 55.363 43.0291 55.3695C42.5142 55.376 42.0225 55.5846 41.66 55.9504C41.2975 56.3161 41.0933 56.8097 41.0914 57.3247C41.0895 57.8397 41.2902 58.3347 41.65 58.7031L46.9625 63.9687ZM56.2125 39.3531C56.0233 39.5574 55.7948 39.7214 55.5407 39.8353C55.2866 39.9492 55.0122 40.0106 54.7338 40.0159C54.4554 40.0212 54.1788 39.9702 53.9205 39.866C53.6623 39.7618 53.4278 39.6066 53.231 39.4096C53.0342 39.2126 52.8792 38.9779 52.7753 38.7195C52.6714 38.4612 52.6207 38.1845 52.6263 37.9062C52.6318 37.6278 52.6936 37.3534 52.8077 37.0994C52.9219 36.8454 53.0861 36.6171 53.2906 36.4281C53.6834 36.0652 54.2014 35.8685 54.736 35.8792C55.2706 35.8899 55.7803 36.1072 56.1582 36.4855C56.5361 36.8638 56.7529 37.3737 56.763 37.9084C56.7731 38.443 56.5758 38.9608 56.2125 39.3531ZM60.1875 64.475C59.997 64.6738 59.7687 64.8325 59.516 64.9419C59.2633 65.0513 58.9913 65.1092 58.7159 65.1121C58.4406 65.115 58.1675 65.0629 57.9125 64.9589C57.6576 64.8548 57.4259 64.701 57.2312 64.5063C57.0365 64.3116 56.8827 64.0799 56.7786 63.825C56.6746 63.57 56.6225 63.2969 56.6254 63.0216C56.6283 62.7462 56.6862 62.4742 56.7956 62.2215C56.905 61.9689 57.0637 61.7405 57.2625 61.55C57.6552 61.1871 58.1732 60.9904 58.7079 61.0011C59.2425 61.0118 59.7522 61.229 60.1301 61.6074C60.508 61.9857 60.7247 62.4956 60.7349 63.0302C60.745 63.5649 60.5508 64.0827 60.1875 64.475ZM32.5781 55.6281C32.7671 55.8326 32.9954 55.9969 33.2494 56.111C33.5034 56.2252 33.7778 56.2869 34.0562 56.2925C34.3346 56.298 34.6112 56.2474 34.8695 56.1434C35.1279 56.0395 35.3626 55.8845 35.5596 55.6878C35.7566 55.491 35.9118 55.2564 36.016 54.9982C36.1202 54.74 36.1712 54.4634 36.1659 54.185C36.1606 53.9066 36.0992 53.6321 35.9853 53.378C35.8714 53.1239 35.7074 52.8954 35.5031 52.7062C35.1108 52.3429 34.593 52.1456 34.0584 52.1558C33.5237 52.1659 33.0138 52.3826 32.6355 52.7605C32.2572 53.1384 32.0399 53.6482 32.0292 54.1828C32.0185 54.7174 32.2152 55.2354 32.5781 55.6281Z" fill="white"/>
<path d="M68.9313 68.9313C66.4568 71.4695 63.5029 73.4912 60.241 74.8789C56.9792 76.2667 53.4742 76.9929 49.9294 77.0155C46.3847 77.038 42.8707 76.3565 39.5914 75.0104C36.3121 73.6643 33.3328 71.6804 30.8262 69.1738C28.3196 66.6672 26.3358 63.6879 24.9896 60.4086C23.6435 57.1293 22.962 53.6153 22.9845 50.0706C23.0071 46.5258 23.7333 43.0208 25.1211 39.759C26.5088 36.4971 28.5305 33.5432 31.0688 31.0688C36.1113 26.153 42.8874 23.4217 49.9294 23.4666C56.9714 23.5114 63.7122 26.3287 68.6918 31.3082C73.6713 36.2878 76.4886 43.0286 76.5335 50.0706C76.5783 57.1126 73.847 63.8887 68.9313 68.9313ZM52.7594 71.8406C54.275 72.0875 55.7781 72.3281 57.1406 71.9031C58.5344 71.45 59.6094 70.3562 60.6781 69.2625C61.3281 68.6 61.975 67.9375 62.6938 67.4219C63.4031 66.9156 64.2188 66.5063 65.0375 66.1C66.4125 65.4125 67.7938 64.725 68.6625 63.5469C69.5156 62.3906 69.7406 60.8781 69.9688 59.3594C70.1031 58.4406 70.2406 57.5219 70.5156 56.6781C70.775 55.8812 71.1875 55.0969 71.6031 54.3031C72.3188 52.9375 73.05 51.5438 73.05 50C73.05 48.4906 72.3219 47.0906 71.6063 45.7156C71.1788 44.9495 70.8141 44.15 70.5156 43.325C70.2406 42.4781 70.1 41.5562 69.9594 40.6375C69.7281 39.1281 69.4969 37.6187 68.6656 36.45C67.8063 35.2562 66.4156 34.575 65.0344 33.8875C64.22 33.5151 63.4373 33.0772 62.6938 32.5781C62.0024 32.0359 61.3545 31.4404 60.7563 30.7969C59.6625 29.6844 58.5594 28.5562 57.1406 28.0937C55.7969 27.6562 54.3125 27.9031 52.7969 28.1531C51.8744 28.3307 50.939 28.4331 50 28.4594C49.0938 28.4594 48.1656 28.3094 47.2406 28.1594C45.725 27.9156 44.2219 27.6719 42.8594 28.0969C41.4656 28.55 40.3906 29.6469 39.3219 30.7375C38.6719 31.4 38.025 32.0625 37.3063 32.5812C36.5607 33.0815 35.7771 33.5225 34.9625 33.9C33.5875 34.5875 32.2063 35.275 31.3375 36.4531C30.4844 37.6094 30.2594 39.1219 30.0313 40.6406C29.9231 41.5489 29.7402 42.4468 29.4844 43.325C29.1877 44.1442 28.824 44.9375 28.3969 45.6969C27.6781 47.0625 26.95 48.4594 26.95 50C26.95 51.5094 27.6781 52.9094 28.3938 54.2844C28.8125 55.0875 29.2219 55.8781 29.4844 56.6781C29.7594 57.5219 29.9 58.4438 30.0406 59.3625C30.2719 60.875 30.5031 62.3813 31.3344 63.55C32.1938 64.7438 33.5844 65.4281 34.9656 66.1125C35.7844 66.5125 36.6 66.9156 37.3063 67.425C37.9844 67.925 38.6125 68.5625 39.2438 69.2063C40.3375 70.3156 41.4406 71.4438 42.8594 71.9063C44.2406 72.3438 45.7438 72.0937 47.2563 71.8437C48.175 71.6938 49.1 71.5406 50 71.5406C50.9063 71.5406 51.8344 71.6906 52.7594 71.8406Z" fill="white"/>
<path d="M13.175 10.1031C16.1505 7.13038 20.1846 5.46055 24.3906 5.46055C28.5967 5.46055 32.6307 7.13038 35.6063 10.1031L36.2313 10.7281C50.8406 5.62187 67.7344 8.89687 79.4188 20.5812C91.1063 32.2656 94.3781 49.1625 89.2688 63.7687L89.8938 64.3938C92.8665 67.3693 94.5363 71.4033 94.5363 75.6094C94.5363 79.8154 92.8665 83.8495 89.8938 86.825L84.8031 91.9187C81.8275 94.8924 77.7928 96.5629 73.5859 96.5629C69.3791 96.5629 65.3444 94.8924 62.3688 91.9187L60.6719 90.2188C53.6285 92.0893 46.2173 92.0761 39.1807 90.1807C32.144 88.2852 25.729 84.574 20.5781 79.4187C15.424 74.2679 11.7137 67.8532 9.81877 60.8172C7.92389 53.7812 7.91095 46.3707 9.78126 39.3281L8.08126 37.6312C5.10756 34.6556 3.43712 30.6209 3.43712 26.4141C3.43712 22.2072 5.10756 18.1725 8.08126 15.1969L13.175 10.1031ZM31.1875 14.525C29.384 12.724 26.9394 11.7123 24.3906 11.7123C21.8418 11.7123 19.3972 12.724 17.5938 14.525L12.5 19.6187C10.699 21.4222 9.68735 23.8668 9.68735 26.4156C9.68735 28.9644 10.699 31.409 12.5 33.2125L16.8844 37.5938C14.5048 43.9501 14.0046 50.857 15.4437 57.4898C16.8827 64.1227 20.2002 70.2013 25 75C29.7987 79.7998 35.8773 83.1173 42.5102 84.5563C49.143 85.9954 56.0499 85.4952 62.4063 83.1156L66.7906 87.5C68.5941 89.301 71.0387 90.3127 73.5875 90.3127C76.1363 90.3127 78.5809 89.301 80.3844 87.5L85.4781 82.4062C87.2792 80.6028 88.2908 78.1582 88.2908 75.6094C88.2908 73.0606 87.2792 70.616 85.4781 68.8125L81.9094 65.2469C88.1906 52.1031 85.8844 35.8844 75 25C64.1156 14.1156 47.8969 11.8125 34.7531 18.0906L31.1906 14.525H31.1875Z" fill="white"/>
</svg>
